<?xml version="1.0" standalone="no"?>
<!DOCTYPE svg PUBLIC "-//W3C//DTD SVG 20010904//EN"
 "http://www.w3.org/TR/2001/REC-SVG-20010904/DTD/svg10.dtd">
<svg version="1.0" xmlns="http://www.w3.org/2000/svg"
 width="1080.000000pt" height="1080.000000pt" viewBox="0 0 1080.000000 1080.000000"
 preserveAspectRatio="xMidYMid meet">

<g transform="translate(0.000000,1080.000000) scale(0.100000,-0.100000)"
fill="#64bbcd" stroke="none">
<path d="M5557 8003 c-3 -5 -8 -27 -12 -49 l-6 -42 63 -6 c116 -13 117 -13
112 -49 -3 -18 -9 -68 -14 -112 -5 -44 -16 -127 -24 -184 -18 -122 -15 -131
50 -131 53 0 57 7 73 131 5 46 17 129 26 184 8 55 15 106 15 113 0 11 13 13
63 7 34 -3 69 -9 78 -11 9 -3 24 3 33 11 19 19 22 85 4 85 -26 1 -246 30 -338
44 -112 18 -117 18 -123 9z"/>
<path d="M6137 7942 c-39 -43 0 -112 64 -112 30 0 69 39 69 70 0 50 -98 81
-133 42z"/>
<path d="M4668 7788 c-21 -5 -38 -15 -38 -21 0 -7 16 -58 35 -115 45 -130 45
-154 1 -198 -50 -50 -110 -44 -140 14 -8 15 -29 72 -46 127 -18 55 -34 103
-36 106 -3 6 -102 -18 -112 -26 -4 -3 74 -239 88 -267 40 -77 106 -106 197
-88 42 9 64 21 93 50 30 30 40 35 44 23 4 -11 14 -13 38 -8 71 14 71 14 64 56
-4 22 -11 48 -16 57 -5 9 -21 58 -36 107 -15 50 -30 95 -33 100 -3 6 -10 28
-16 50 -11 45 -25 50 -87 33z"/>
<path d="M6097 7773 c-3 -5 -16 -51 -31 -103 -30 -106 -52 -184 -72 -248 -15
-48 -17 -45 54 -61 23 -5 44 -6 47 -2 7 12 31 89 55 176 12 44 31 108 42 143
11 35 17 66 14 69 -8 9 -77 33 -93 33 -6 0 -14 -3 -16 -7z"/>
<path d="M6742 7697 c-35 -37 -27 -79 19 -102 39 -21 56 -19 84 10 32 31 31
46 -4 84 -35 37 -69 40 -99 8z"/>
<path d="M6336 7678 c-9 -12 -16 -26 -16 -31 0 -5 -6 -23 -14 -40 -8 -18 -33
-77 -56 -132 -22 -55 -45 -108 -50 -117 -14 -24 -3 -44 30 -58 56 -23 68 -13
112 90 54 128 72 145 147 143 57 -1 59 0 76 32 29 53 16 67 -60 63 -64 -3 -65
-3 -65 22 0 20 -7 29 -33 38 -46 16 -54 15 -71 -10z"/>
<path d="M3795 7566 c-43 -24 -55 -55 -30 -76 8 -7 15 -17 15 -22 0 -16 252
-439 259 -436 3 2 23 12 44 23 23 12 37 26 37 38 0 10 -23 58 -51 105 -67 113
-75 164 -31 205 21 21 41 29 68 30 32 1 42 -5 76 -43 21 -25 38 -49 38 -53 0
-12 81 -147 88 -147 11 0 92 51 92 58 0 4 -21 43 -47 87 -25 44 -57 99 -70
123 -45 78 -117 112 -193 92 -41 -11 -125 -80 -135 -111 -9 -28 -17 -19 -69
71 -26 44 -48 80 -49 80 -1 -1 -20 -11 -42 -24z"/>
<path d="M5152 7574 c-17 -12 -22 -25 -22 -59 0 -38 4 -46 28 -58 36 -19 90
-5 101 26 28 73 -45 135 -107 91z"/>
<path d="M6672 7547 c-5 -6 -24 -39 -42 -72 -18 -33 -59 -108 -92 -167 -33
-59 -57 -112 -53 -118 11 -17 87 -52 95 -43 9 9 23 33 90 158 24 44 59 106 78
138 19 32 33 59 31 61 -2 1 -25 14 -50 29 -36 20 -49 24 -57 14z"/>
<path d="M6855 7448 c-6 -17 -54 -198 -71 -268 -7 -30 -17 -73 -23 -95 -16
-59 -15 -61 35 -99 l46 -36 57 32 c55 31 146 83 179 103 10 6 47 27 84 48 74
42 77 50 23 92 l-34 25 -128 -75 c-70 -41 -131 -75 -136 -75 -12 0 -3 42 47
209 23 78 21 92 -23 124 -44 31 -50 32 -56 15z"/>
<path d="M3621 7233 c-63 -27 -130 -122 -131 -184 0 -20 -20 -29 -61 -29 -41
0 -112 -66 -129 -122 -17 -53 -17 -53 -33 -40 -10 8 -22 3 -51 -24 -21 -19
-36 -38 -34 -42 8 -19 286 -282 298 -282 13 0 70 57 70 70 0 3 -40 47 -90 96
-85 85 -90 93 -90 133 0 56 33 91 86 91 33 0 46 -10 128 -90 51 -49 97 -90
102 -90 6 0 27 17 47 38 l37 38 -86 84 c-47 47 -92 99 -100 116 -26 61 13 124
77 124 35 0 48 -9 138 -96 l101 -96 42 41 43 40 -105 101 c-102 98 -164 140
-205 139 -11 0 -35 -7 -54 -16z"/>
<path d="M7252 7065 c-18 -38 -15 -51 14 -64 93 -42 134 -123 91 -179 -8 -10
-27 4 -84 60 l-74 73 -60 0 c-54 -1 -64 -4 -85 -28 -36 -42 -40 -87 -13 -142
27 -54 64 -88 114 -106 27 -10 34 -17 29 -31 -5 -16 42 -88 58 -88 3 0 41 33
84 72 42 40 85 79 95 86 31 22 69 96 69 135 0 70 -79 175 -162 218 -49 25 -62
24 -76 -6z m-5 -247 c24 -23 43 -46 43 -51 0 -16 -44 -46 -67 -47 -29 0 -103
70 -103 98 0 12 8 26 18 31 35 21 65 12 109 -31z"/>
<path d="M7535 6686 c-84 -37 -89 -98 -24 -243 22 -48 16 -73 -15 -73 -37 0
-91 75 -106 145 -5 27 -10 30 -48 33 -41 3 -42 2 -42 -27 0 -43 43 -135 89
-190 50 -59 102 -80 159 -63 84 25 96 86 44 216 -33 82 -32 106 7 106 33 0
101 -100 101 -147 0 -19 6 -23 29 -23 70 0 76 23 32 115 -32 69 -89 131 -137
151 -40 17 -51 17 -89 0z"/>
<path d="M3061 6556 c-61 -45 -121 -160 -121 -231 0 -35 0 -35 45 -35 42 0 45
2 45 26 0 88 102 195 141 147 10 -11 6 -27 -23 -81 -58 -109 -61 -170 -10
-217 38 -36 118 -35 160 0 42 35 72 98 72 149 0 37 3 42 21 42 14 -1 28 11 42
37 l22 38 -27 22 c-15 12 -44 31 -65 42 -21 11 -64 34 -95 52 -74 43 -156 46
-207 9z m224 -161 c14 -13 25 -36 25 -50 0 -49 -42 -105 -79 -105 -6 0 -21 12
-34 26 l-25 26 37 64 c20 35 40 64 44 64 4 0 19 -11 32 -25z"/>
<path d="M7950 6360 c-25 -10 -133 -53 -240 -95 -107 -43 -201 -83 -209 -90
-11 -11 -11 -19 5 -52 21 -42 48 -52 86 -32 44 25 153 59 186 59 44 0 68 -14
88 -52 20 -39 11 -93 -19 -112 -12 -8 -70 -33 -129 -56 -60 -23 -108 -47 -108
-53 0 -24 28 -91 40 -95 6 -2 44 9 83 26 40 17 98 41 130 53 36 14 72 38 93
61 30 34 34 44 34 94 0 63 -17 103 -67 155 l-34 36 68 27 c104 42 113 50 103
87 -18 63 -37 70 -110 39z"/>
<path d="M2875 6128 c-68 -37 -100 -98 -99 -185 1 -40 -3 -63 -10 -63 -6 0
-42 11 -81 25 -38 13 -76 25 -83 25 -13 0 -25 -25 -36 -76 l-7 -31 83 -27 c46
-14 97 -31 113 -37 175 -59 332 -109 348 -109 13 0 37 59 37 92 0 11 -28 25
-87 43 -99 31 -153 56 -173 79 -18 23 -16 88 4 119 31 47 78 45 221 -7 97 -36
109 -34 123 13 20 65 19 66 -75 96 -49 14 -105 33 -126 41 -44 17 -124 18
-152 2z"/>
<path d="M7784 5743 c-99 -64 -129 -205 -68 -325 17 -34 53 -78 63 -78 3 0 17
16 30 35 l23 34 -20 26 c-44 56 -37 186 11 204 28 11 34 1 42 -73 4 -34 12
-72 18 -86 6 -14 13 -52 16 -85 l6 -60 35 3 c44 5 110 43 136 79 76 103 49
245 -60 324 -35 26 -47 29 -115 29 -65 0 -82 -4 -117 -27z m202 -101 c45 -36
56 -90 29 -141 -13 -26 -33 -41 -54 -41 -8 0 -25 73 -36 153 -6 44 -5 47 17
47 13 0 33 -8 44 -18z"/>
<path d="M2576 5618 c-38 -58 -50 -104 -50 -198 -1 -84 2 -100 23 -134 32 -52
75 -76 134 -76 53 0 101 26 118 64 5 11 13 28 18 36 6 8 22 47 37 85 14 39 33
78 42 88 24 27 65 22 85 -12 18 -31 23 -96 8 -105 -5 -3 -12 -23 -16 -43 -4
-21 -15 -49 -24 -63 -32 -46 -32 -48 5 -69 19 -12 39 -21 44 -21 17 0 60 79
72 128 20 89 21 169 2 217 -29 78 -110 128 -178 111 -34 -8 -88 -64 -108 -111
-9 -22 -26 -65 -38 -95 -12 -30 -29 -63 -38 -72 -22 -26 -59 -22 -78 7 -22 34
-15 135 14 189 24 44 19 57 -29 82 -27 13 -29 13 -43 -8z"/>
<path d="M7761 5046 c-63 -101 -80 -253 -38 -336 30 -60 76 -90 138 -90 42 0
55 5 88 35 22 20 46 55 56 82 61 166 90 200 139 162 23 -18 26 -28 26 -77 0
-35 -8 -74 -20 -101 -27 -60 -25 -78 11 -96 28 -15 33 -15 48 -1 31 29 56 116
56 201 0 91 -17 138 -66 179 -25 22 -41 26 -91 26 -58 0 -63 -2 -97 -38 -23
-24 -48 -71 -70 -127 -48 -123 -74 -145 -122 -106 -35 29 -30 125 11 205 16
33 30 65 30 71 0 9 -59 45 -75 45 -2 0 -13 -15 -24 -34z"/>
<path d="M2802 4894 c-74 -32 -132 -118 -132 -195 0 -132 136 -256 251 -230
74 17 149 64 149 93 0 6 8 20 17 30 24 27 23 169 -2 218 -21 42 -54 80 -70 80
-17 0 -45 -34 -45 -55 0 -10 8 -27 17 -37 11 -12 19 -41 21 -82 4 -56 1 -65
-23 -94 -15 -18 -30 -32 -34 -32 -8 0 -39 133 -47 200 -16 128 -13 120 -42
119 -15 0 -42 -7 -60 -15z m48 -156 c6 -29 14 -77 17 -105 4 -49 3 -53 -16
-53 -11 0 -35 13 -53 29 -29 26 -33 36 -33 79 0 40 5 56 24 76 14 14 30 26 36
26 7 0 18 -24 25 -52z"/>
<path d="M7667 4583 c-4 -3 -7 -15 -7 -25 0 -10 -6 -27 -12 -38 -16 -25 -8
-31 71 -55 153 -46 201 -78 201 -137 0 -40 -23 -82 -53 -95 -25 -12 -105 5
-202 41 -22 8 -52 15 -66 16 -23 0 -29 -7 -42 -45 -14 -46 -14 -46 12 -59 23
-11 92 -34 228 -76 64 -20 111 -6 160 46 46 50 59 94 48 168 -4 25 -5 46 -3
46 2 0 44 -13 93 -29 50 -16 93 -27 96 -25 3 2 14 24 24 50 14 38 15 48 4 55
-17 10 -252 88 -299 100 -19 4 -72 21 -118 38 -82 30 -122 38 -135 24z"/>
<path d="M3080 4443 c-19 -9 -62 -26 -95 -38 -126 -45 -185 -103 -185 -180 0
-52 33 -123 73 -157 36 -31 32 -39 -28 -58 -22 -7 -44 -16 -50 -20 -5 -4 -23
-10 -39 -14 -26 -6 -28 -9 -21 -43 12 -65 34 -85 73 -64 9 5 60 26 112 46 106
41 156 61 215 85 22 9 68 27 103 40 34 12 64 25 66 29 3 5 -29 92 -39 109 -1
1 -15 -4 -31 -12 -16 -8 -56 -25 -89 -38 -33 -12 -69 -28 -80 -35 -45 -30
-109 -3 -141 59 -32 61 2 104 118 150 95 37 138 60 138 73 0 5 -5 27 -11 48
-11 42 -31 47 -89 20z"/>
<path d="M7499 4087 c-45 -30 -92 -121 -85 -165 4 -29 3 -32 -17 -27 -18 5
-26 -2 -46 -40 -13 -25 -22 -47 -20 -50 7 -6 167 -95 219 -122 132 -66 251 22
294 219 8 34 -15 58 -54 58 -26 0 -29 -4 -40 -53 -20 -99 -69 -148 -126 -127
l-26 10 35 63 c42 76 62 137 53 170 -3 13 -20 38 -38 56 -40 39 -98 43 -149 8z
m82 -97 c12 -7 19 -21 19 -38 0 -30 -53 -122 -70 -122 -5 0 -20 10 -31 21 -18
18 -20 30 -16 67 7 67 49 97 98 72z"/>
<path d="M3198 3949 c-29 -28 -30 -34 -25 -84 3 -30 12 -67 20 -82 51 -102 48
-92 27 -113 -26 -26 -31 -25 -62 8 -31 33 -49 67 -58 107 -6 27 -10 30 -44 29
-20 -1 -41 -5 -46 -10 -5 -5 -1 -31 9 -59 40 -117 119 -195 197 -195 35 0 49
6 78 34 51 48 49 84 -10 214 -31 67 4 106 53 60 27 -25 69 -108 75 -148 3 -22
7 -25 38 -22 19 2 39 8 44 13 12 11 -17 109 -47 159 -49 84 -100 120 -172 120
-39 0 -52 -5 -77 -31z"/>
<path d="M7262 3703 l-32 -36 95 -98 c80 -82 95 -103 95 -130 0 -48 -43 -99
-83 -99 -33 0 -35 2 -180 139 l-58 54 -39 -38 -40 -39 84 -86 c46 -47 91 -99
99 -116 14 -27 14 -34 -3 -71 -19 -43 -35 -53 -81 -53 -30 0 -56 20 -172 133
-27 26 -54 47 -60 47 -17 0 -67 -52 -67 -70 0 -9 47 -62 104 -118 115 -112
154 -131 225 -112 70 18 141 110 141 180 0 28 3 30 34 30 19 0 38 5 41 10 3 6
14 10 24 10 27 0 88 73 101 119 9 36 13 39 29 29 15 -9 24 -5 55 28 l37 39
-148 143 c-81 78 -152 142 -158 141 -5 0 -25 -16 -43 -36z"/>
<path d="M3442 3592 c-118 -111 -132 -132 -132 -203 0 -46 5 -63 30 -97 35
-49 125 -122 149 -122 9 0 22 -5 28 -11 9 -9 16 -2 27 26 21 48 20 55 -4 55
-10 0 -44 24 -75 54 -61 60 -69 90 -34 122 21 19 21 19 73 -37 105 -115 178
-128 248 -44 23 27 22 87 -2 134 -25 51 -87 101 -122 101 -25 0 -28 3 -22 26
5 19 0 32 -22 55 -15 16 -33 29 -38 29 -6 -1 -53 -40 -104 -88z m171 -83 c14
-6 34 -28 46 -48 l21 -38 -23 -21 c-34 -32 -51 -28 -110 29 l-52 50 24 20 c26
21 59 24 94 8z"/>
<path d="M3914 3274 c-21 -13 -46 -27 -54 -31 -8 -4 -37 -21 -65 -38 -27 -17
-57 -35 -65 -38 -8 -4 -33 -18 -55 -32 -22 -14 -50 -30 -62 -35 -12 -5 -26
-18 -32 -28 -9 -17 -5 -24 29 -47 39 -27 39 -27 67 -9 49 33 67 44 88 53 11 5
47 25 80 45 33 20 64 36 68 36 8 0 -1 -67 -12 -85 -9 -16 -50 -178 -50 -200 0
-25 81 -90 90 -72 4 7 23 80 43 162 20 83 43 172 51 199 8 26 15 54 15 60 0 6
-22 28 -48 48 l-49 36 -39 -24z"/>
<path d="M6692 3184 c-39 -23 -42 -27 -28 -42 8 -10 19 -28 25 -42 6 -14 15
-32 21 -40 39 -60 70 -125 70 -148 0 -49 -57 -102 -109 -102 -30 0 -76 53
-126 145 -57 105 -65 112 -102 89 -67 -42 -67 -35 0 -151 33 -59 79 -126 102
-150 41 -42 43 -43 107 -43 57 0 70 4 107 31 24 17 50 44 59 60 10 16 20 29
23 29 8 0 76 -105 84 -130 8 -26 41 -25 86 3 l37 22 -47 80 c-26 44 -59 100
-73 125 -14 25 -35 63 -48 85 -12 22 -38 67 -59 100 -20 33 -41 69 -46 80 -15
29 -34 28 -83 -1z"/>
<path d="M4174 3028 c-22 -40 -47 -86 -56 -103 -9 -16 -21 -39 -26 -50 -5 -11
-24 -45 -42 -74 l-32 -55 24 -18 c27 -21 63 -32 80 -25 7 3 27 31 43 64 17 32
39 74 51 93 31 53 104 188 104 193 0 10 -71 47 -89 47 -13 0 -31 -23 -57 -72z"/>
<path d="M4494 2953 c-8 -24 -26 -65 -63 -146 -38 -82 -77 -108 -136 -90 -32
10 -37 9 -55 -15 -12 -15 -20 -37 -18 -51 3 -25 6 -26 71 -26 66 0 68 -1 62
-23 -4 -18 0 -24 22 -32 16 -6 36 -15 46 -21 22 -12 40 6 58 61 6 19 21 58 34
85 13 28 35 82 49 120 15 39 32 78 37 89 12 21 6 28 -48 52 -42 18 -52 18 -59
-3z"/>
<path d="M6146 2925 c-21 -7 -54 -28 -73 -47 -27 -26 -36 -30 -42 -19 -6 10
-20 12 -47 8 -70 -12 -71 -18 -20 -171 25 -75 46 -141 46 -147 0 -6 6 -25 14
-42 8 -18 16 -40 19 -49 5 -15 9 -15 54 2 43 17 48 21 45 47 -2 15 -12 55 -23
88 -12 33 -23 86 -26 117 -5 53 -4 59 25 87 21 22 40 31 62 31 51 0 82 -40
119 -160 19 -58 38 -110 42 -116 7 -9 21 -8 52 3 23 8 46 18 50 22 10 10 -70
253 -97 294 -41 61 -118 81 -200 52z"/>
<path d="M4696 2888 c-6 -23 -35 -121 -57 -198 -12 -41 -28 -94 -35 -118 -20
-60 -18 -69 16 -87 46 -24 68 -19 85 18 17 39 55 165 55 183 0 8 11 48 25 90
26 81 26 91 -8 103 -50 19 -77 21 -81 9z"/>
<path d="M5021 2801 c-6 -10 -15 -54 -20 -98 -27 -230 -44 -323 -60 -323 -9 1
-47 5 -86 10 -79 10 -85 6 -85 -51 l0 -36 168 -22 c92 -12 193 -27 224 -33 75
-14 88 -8 88 40 0 38 -1 40 -42 50 -24 6 -62 13 -85 17 -43 7 -43 7 -38 43 3
21 10 73 15 117 6 44 17 125 25 180 13 91 13 101 -2 113 -27 19 -90 15 -102
-7z"/>
<path d="M5557 2803 c-23 -6 -49 -57 -40 -80 13 -36 36 -53 73 -53 45 0 70 24
70 67 0 46 -52 80 -103 66z"/>
<path d="M3973 2660 c-46 -19 -55 -69 -18 -105 31 -32 74 -33 103 -2 28 30 28
50 0 81 -27 29 -55 38 -85 26z"/>
<path d="M4556 2399 c-41 -32 -33 -78 16 -102 40 -19 68 -13 95 22 19 24 16
37 -18 70 -36 36 -57 39 -93 10z"/>
</g>
</svg>
